<svg width="60" height="44" viewBox="0 0 60 44" fill="none" xmlns="http://www.w3.org/2000/svg">
<path d="M57.6923 1.97253H49.4506C48.178 1.97253 47.1429 3.0077 47.1429 4.28023V41.3681C47.1429 42.6407 48.178 43.6758 49.4506 43.6758H57.6923C58.9649 43.6758 60 42.6407 60 41.3681V4.28023C60 3.0077 58.9649 1.97253 57.6923 1.97253ZM53.7139 19.4451C51.8628 19.4451 50.3623 17.9444 50.3623 16.0935C50.3623 14.2425 51.8629 12.7419 53.7139 12.7419C55.5648 12.7419 57.0655 14.2425 57.0655 16.0935C57.0655 17.9444 55.565 19.4451 53.7139 19.4451Z" fill="#F1EBEB"/>
<path d="M37.9121 0.324219H4.94505C2.21835 0.324219 0 2.54257 0 5.26927V29.8297C0 32.5564 2.21835 34.7748 4.94505 34.7748H17.967V38.3624C17.967 38.472 17.8902 38.566 17.8274 38.566H8.62929C7.59758 38.566 6.75824 39.362 6.75824 40.3404V41.8627C6.75824 42.8454 7.61505 43.6759 8.62929 43.6759H34.4431C35.4471 43.6759 36.2639 42.8624 36.2639 41.8627V40.3404C36.2639 39.3453 35.4641 38.566 34.4431 38.566H25.2448C25.1596 38.566 25.0551 38.4537 25.0551 38.3624V34.7748H37.9123C40.639 34.7748 42.8573 32.5564 42.8573 29.8297V5.26927C42.8571 2.54257 40.6388 0.324219 37.9121 0.324219ZM37.9121 5.26927L37.9149 27.1924H4.94505V5.26927H37.9121Z" fill="#F1EBEB"/>
</svg>
